<svg width="513" height="513" viewBox="0 0 513 513" fill="none" xmlns="http://www.w3.org/2000/svg">
<circle cx="256.5" cy="256.5" r="256.5" fill="#EAE8E8" fill-opacity="0.46"/>
<path d="M66 99.9532C66 85.6144 78.2414 74 93.265 74H201.592C216.656 74 228.857 85.7317 228.857 99.9532V413.047C228.857 427.386 216.616 439 201.592 439H93.2786C78.2007 438.987 66 427.255 66 413.034V99.9401V99.9532ZM93.1429 113.119V399.868C93.1429 407.09 99.1957 412.916 106.674 412.916H188.184C195.566 412.916 201.714 407.077 201.714 399.881V113.106C201.714 105.897 195.661 100.07 188.184 100.07H106.674C99.2907 100.07 93.1429 105.91 93.1429 113.106V113.119ZM256 100.188C256 85.7187 268.174 74 283.224 74H418.776C433.813 74 446 85.7578 446 100.188V204.235C446 218.704 433.826 230.423 418.776 230.423H283.224C276 230.413 269.076 227.649 263.971 222.739C258.867 217.829 256 211.174 256 204.235V100.201V100.188ZM283.143 113.067V191.356C283.154 194.795 284.579 198.091 287.108 200.525C289.637 202.96 293.066 204.335 296.646 204.352H405.354C412.682 204.352 418.857 198.539 418.857 191.356V113.067C418.846 109.628 417.421 106.332 414.892 103.898C412.363 101.463 408.934 100.088 405.354 100.07H296.646C289.318 100.07 283.143 105.884 283.143 113.067ZM256 282.642C256 268.199 268.174 256.493 283.224 256.493H418.776C433.813 256.493 446 268.186 446 282.642V412.838C446.002 416.273 445.299 419.674 443.931 422.847C442.564 426.02 440.559 428.904 438.03 431.332C435.502 433.76 432.5 435.687 429.196 437C425.892 438.313 422.351 438.989 418.776 438.987H283.224C279.649 438.989 276.108 438.313 272.804 437C269.5 435.687 266.498 433.76 263.97 431.332C261.441 428.904 259.436 426.02 258.069 422.847C256.701 419.674 255.998 416.273 256 412.838V282.642ZM283.143 295.547V399.946C283.143 406.985 289.196 412.916 296.646 412.916H405.354C412.682 412.916 418.857 407.103 418.857 399.946V295.534C418.857 288.495 412.804 282.564 405.354 282.564H296.646C289.318 282.564 283.143 288.378 283.143 295.534V295.547Z" fill="#333333"/>
<path d="M117.091 367.818L107.409 394H103.318L93.6364 367.818H98L105.227 388.682H105.5L112.727 367.818H117.091ZM138.901 383.295V367.818H142.923V394H138.901V389.568H138.628C138.014 390.898 137.06 392.028 135.764 392.96C134.469 393.881 132.832 394.341 130.855 394.341C129.219 394.341 127.764 393.983 126.491 393.267C125.219 392.54 124.219 391.449 123.491 389.994C122.764 388.528 122.401 386.682 122.401 384.455V367.818H126.423V384.182C126.423 386.091 126.957 387.614 128.026 388.75C129.105 389.886 130.48 390.455 132.151 390.455C133.151 390.455 134.168 390.199 135.202 389.688C136.247 389.176 137.122 388.392 137.827 387.335C138.543 386.278 138.901 384.932 138.901 383.295ZM161.268 394.545C158.746 394.545 156.57 393.989 154.74 392.875C152.922 391.75 151.518 390.182 150.53 388.17C149.553 386.148 149.064 383.795 149.064 381.114C149.064 378.432 149.553 376.068 150.53 374.023C151.518 371.966 152.893 370.364 154.655 369.216C156.428 368.057 158.496 367.477 160.859 367.477C162.223 367.477 163.57 367.705 164.899 368.159C166.229 368.614 167.439 369.352 168.53 370.375C169.621 371.386 170.49 372.727 171.138 374.398C171.786 376.068 172.109 378.125 172.109 380.568V382.273H151.928V378.795H168.018C168.018 377.318 167.723 376 167.132 374.841C166.553 373.682 165.723 372.767 164.643 372.097C163.575 371.426 162.314 371.091 160.859 371.091C159.257 371.091 157.871 371.489 156.7 372.284C155.541 373.068 154.649 374.091 154.024 375.352C153.399 376.614 153.087 377.966 153.087 379.409V381.727C153.087 383.705 153.428 385.381 154.109 386.756C154.803 388.119 155.763 389.159 156.99 389.875C158.217 390.58 159.643 390.932 161.268 390.932C162.325 390.932 163.28 390.784 164.132 390.489C164.996 390.182 165.74 389.727 166.365 389.125C166.99 388.511 167.473 387.75 167.814 386.841L171.7 387.932C171.291 389.25 170.604 390.409 169.638 391.409C168.672 392.398 167.479 393.17 166.058 393.727C164.638 394.273 163.041 394.545 161.268 394.545ZM189.956 394.477C187.706 394.477 185.7 394.091 183.939 393.318C182.189 392.545 180.797 391.472 179.763 390.097C178.74 388.71 178.183 387.102 178.092 385.273H182.388C182.479 386.398 182.865 387.369 183.547 388.188C184.229 388.994 185.121 389.619 186.223 390.062C187.325 390.506 188.547 390.727 189.888 390.727C191.388 390.727 192.717 390.466 193.876 389.943C195.036 389.42 195.945 388.693 196.604 387.761C197.263 386.83 197.592 385.75 197.592 384.523C197.592 383.239 197.274 382.108 196.638 381.131C196.001 380.142 195.07 379.369 193.842 378.812C192.615 378.256 191.115 377.977 189.342 377.977H186.547V374.227H189.342C190.729 374.227 191.945 373.977 192.99 373.477C194.047 372.977 194.871 372.273 195.462 371.364C196.064 370.455 196.365 369.386 196.365 368.159C196.365 366.977 196.104 365.949 195.581 365.074C195.058 364.199 194.32 363.517 193.365 363.028C192.422 362.54 191.308 362.295 190.024 362.295C188.82 362.295 187.683 362.517 186.615 362.96C185.558 363.392 184.695 364.023 184.024 364.852C183.354 365.67 182.99 366.659 182.933 367.818H178.842C178.911 365.989 179.462 364.386 180.496 363.011C181.53 361.625 182.882 360.545 184.553 359.773C186.234 359 188.081 358.614 190.092 358.614C192.251 358.614 194.104 359.051 195.649 359.926C197.195 360.79 198.382 361.932 199.212 363.352C200.041 364.773 200.456 366.307 200.456 367.955C200.456 369.92 199.939 371.597 198.905 372.983C197.882 374.369 196.49 375.33 194.729 375.864V376.136C196.933 376.5 198.655 377.437 199.893 378.949C201.132 380.449 201.751 382.307 201.751 384.523C201.751 386.42 201.234 388.125 200.2 389.636C199.178 391.136 197.78 392.318 196.007 393.182C194.234 394.045 192.217 394.477 189.956 394.477Z" fill="url(#paint0_linear_8_73)"/>
<path d="M282.909 128.182L257.091 198H246.182L220.364 128.182H232L251.273 183.818H252L271.273 128.182H282.909ZM297.068 198V128.182H307.795V198H297.068ZM302.523 116.545C300.432 116.545 298.629 115.833 297.114 114.409C295.629 112.985 294.886 111.273 294.886 109.273C294.886 107.273 295.629 105.561 297.114 104.136C298.629 102.712 300.432 102 302.523 102C304.614 102 306.402 102.712 307.886 104.136C309.402 105.561 310.159 107.273 310.159 109.273C310.159 111.273 309.402 112.985 307.886 114.409C306.402 115.833 304.614 116.545 302.523 116.545ZM357.807 128.182V137.273H321.625V128.182H357.807ZM332.17 111.455H342.898V178C342.898 181.03 343.337 183.303 344.216 184.818C345.125 186.303 346.277 187.303 347.67 187.818C349.095 188.303 350.595 188.545 352.17 188.545C353.352 188.545 354.322 188.485 355.08 188.364C355.837 188.212 356.443 188.091 356.898 188L359.08 197.636C358.352 197.909 357.337 198.182 356.034 198.455C354.731 198.758 353.08 198.909 351.08 198.909C348.049 198.909 345.08 198.258 342.17 196.955C339.292 195.652 336.898 193.667 334.989 191C333.11 188.333 332.17 184.97 332.17 180.909V111.455ZM402.466 199.455C395.739 199.455 389.936 197.97 385.057 195C380.208 192 376.466 187.818 373.83 182.455C371.223 177.061 369.92 170.788 369.92 163.636C369.92 156.485 371.223 150.182 373.83 144.727C376.466 139.242 380.133 134.97 384.83 131.909C389.557 128.818 395.072 127.273 401.375 127.273C405.011 127.273 408.602 127.879 412.148 129.091C415.693 130.303 418.92 132.273 421.83 135C424.739 137.697 427.057 141.273 428.784 145.727C430.511 150.182 431.375 155.667 431.375 162.182V166.727H377.557V157.455H420.466C420.466 153.515 419.678 150 418.102 146.909C416.557 143.818 414.345 141.379 411.466 139.591C408.617 137.803 405.254 136.909 401.375 136.909C397.102 136.909 393.405 137.97 390.284 140.091C387.193 142.182 384.814 144.909 383.148 148.273C381.481 151.636 380.648 155.242 380.648 159.091V165.273C380.648 170.545 381.557 175.015 383.375 178.682C385.223 182.318 387.784 185.091 391.057 187C394.33 188.879 398.133 189.818 402.466 189.818C405.284 189.818 407.83 189.424 410.102 188.636C412.405 187.818 414.39 186.606 416.057 185C417.723 183.364 419.011 181.333 419.92 178.909L430.284 181.818C429.193 185.333 427.36 188.424 424.784 191.091C422.208 193.727 419.027 195.788 415.239 197.273C411.451 198.727 407.193 199.455 402.466 199.455Z" fill="url(#paint1_linear_8_73)"/>
<path d="M137 114.682H163.182V118.568H159.091V118.909C160.489 119.455 161.574 120.335 162.347 121.551C163.131 122.767 163.523 124.227 163.523 125.932C163.523 127.659 163.131 129.097 162.347 130.244C161.574 131.403 160.489 132.307 159.091 132.955V133.227C160.443 133.898 161.517 134.903 162.312 136.244C163.119 137.585 163.523 139.193 163.523 141.068C163.523 143.409 162.79 145.324 161.324 146.812C159.869 148.301 157.602 149.045 154.523 149.045H137V145.023H154.523C156.455 145.023 157.835 144.494 158.665 143.438C159.494 142.381 159.909 141.136 159.909 139.705C159.909 137.864 159.352 136.438 158.239 135.426C157.136 134.415 155.739 133.909 154.045 133.909H137V129.818H154.932C156.42 129.818 157.619 129.335 158.528 128.369C159.449 127.403 159.909 126.159 159.909 124.636C159.909 123.591 159.631 122.614 159.074 121.705C158.517 120.807 157.744 120.08 156.756 119.523C155.778 118.977 154.648 118.705 153.364 118.705H137V114.682ZM136.386 164.105C136.386 162.446 136.699 160.94 137.324 159.588C137.96 158.236 138.875 157.162 140.068 156.366C141.273 155.571 142.727 155.173 144.432 155.173C145.932 155.173 147.148 155.469 148.08 156.06C149.023 156.651 149.761 157.44 150.295 158.429C150.83 159.418 151.227 160.509 151.489 161.702C151.761 162.906 151.977 164.116 152.136 165.332C152.341 166.923 152.494 168.213 152.597 169.202C152.71 170.202 152.898 170.929 153.159 171.384C153.42 171.849 153.875 172.082 154.523 172.082H154.659C156.341 172.082 157.648 171.622 158.58 170.702C159.511 169.793 159.977 168.412 159.977 166.56C159.977 164.639 159.557 163.134 158.716 162.043C157.875 160.952 156.977 160.185 156.023 159.741L157.386 155.923C158.977 156.605 160.216 157.514 161.102 158.651C162 159.798 162.625 161.048 162.977 162.401C163.341 163.764 163.523 165.105 163.523 166.423C163.523 167.264 163.42 168.23 163.216 169.321C163.023 170.423 162.619 171.486 162.006 172.509C161.392 173.543 160.466 174.401 159.227 175.082C157.989 175.764 156.33 176.105 154.25 176.105H137V172.082H140.545V171.878C139.977 171.605 139.369 171.151 138.722 170.514C138.074 169.878 137.523 169.031 137.068 167.974C136.614 166.918 136.386 165.628 136.386 164.105ZM140 164.719C140 166.31 140.312 167.651 140.938 168.741C141.562 169.844 142.369 170.673 143.358 171.23C144.347 171.798 145.386 172.082 146.477 172.082H150.159C149.955 171.912 149.767 171.537 149.597 170.957C149.438 170.389 149.295 169.73 149.17 168.98C149.057 168.241 148.955 167.52 148.864 166.815C148.784 166.122 148.716 165.56 148.659 165.128C148.523 164.082 148.301 163.105 147.994 162.196C147.699 161.298 147.25 160.571 146.648 160.014C146.057 159.469 145.25 159.196 144.227 159.196C142.83 159.196 141.773 159.713 141.057 160.747C140.352 161.793 140 163.116 140 164.719ZM137 183.447H163.182V187.334H159.227V187.607C160.523 188.084 161.574 188.947 162.381 190.197C163.188 191.447 163.591 192.857 163.591 194.425C163.591 194.72 163.585 195.089 163.574 195.533C163.563 195.976 163.545 196.311 163.523 196.538H159.432C159.466 196.402 159.517 196.089 159.585 195.601C159.665 195.124 159.705 194.618 159.705 194.084C159.705 192.811 159.438 191.675 158.903 190.675C158.381 189.686 157.653 188.902 156.722 188.322C155.801 187.754 154.75 187.47 153.568 187.47H137V183.447ZM146.545 205.057L151.523 204.989V205.807L163.182 217.261V222.239L150.841 210.034V209.693L146.545 205.057ZM137 201.307H171.909V205.33H137V201.307ZM137 217.943L149.955 207.716L152.75 210.58L137 223.057V217.943ZM136.455 236.224C136.455 234.043 137.006 232.116 138.108 230.446C139.222 228.776 140.79 227.469 142.812 226.526C144.847 225.582 147.25 225.111 150.023 225.111C152.773 225.111 155.159 225.582 157.182 226.526C159.205 227.469 160.767 228.781 161.869 230.463C162.972 232.145 163.523 234.088 163.523 236.293C163.523 237.997 163.239 239.344 162.67 240.332C162.114 241.332 161.477 242.094 160.761 242.616C160.057 243.151 159.477 243.565 159.023 243.861V244.202H171.909V248.224H137V244.338H141.023V243.861C140.545 243.565 139.943 243.145 139.216 242.599C138.5 242.054 137.858 241.276 137.29 240.264C136.733 239.253 136.455 237.906 136.455 236.224ZM140.068 236.77C140.068 238.384 140.489 239.747 141.33 240.861C142.182 241.974 143.358 242.821 144.858 243.401C146.369 243.98 148.114 244.27 150.091 244.27C152.045 244.27 153.756 243.986 155.222 243.418C156.699 242.849 157.847 242.009 158.665 240.895C159.494 239.781 159.909 238.406 159.909 236.77C159.909 235.065 159.472 233.645 158.597 232.509C157.733 231.384 156.557 230.537 155.068 229.969C153.591 229.412 151.932 229.134 150.091 229.134C148.227 229.134 146.534 229.418 145.011 229.986C143.5 230.565 142.295 231.418 141.398 232.543C140.511 233.679 140.068 235.088 140.068 236.77ZM136.455 266.787C136.455 264.423 137.017 262.349 138.142 260.565C139.267 258.793 140.841 257.406 142.864 256.406C144.886 255.418 147.25 254.923 149.955 254.923C152.682 254.923 155.063 255.418 157.097 256.406C159.131 257.406 160.71 258.793 161.835 260.565C162.96 262.349 163.523 264.423 163.523 266.787C163.523 269.151 162.96 271.219 161.835 272.991C160.71 274.776 159.131 276.162 157.097 277.151C155.063 278.151 152.682 278.651 149.955 278.651C147.25 278.651 144.886 278.151 142.864 277.151C140.841 276.162 139.267 274.776 138.142 272.991C137.017 271.219 136.455 269.151 136.455 266.787ZM140.068 266.787C140.068 268.582 140.528 270.06 141.449 271.219C142.369 272.378 143.58 273.236 145.08 273.793C146.58 274.349 148.205 274.628 149.955 274.628C151.705 274.628 153.335 274.349 154.847 273.793C156.358 273.236 157.58 272.378 158.511 271.219C159.443 270.06 159.909 268.582 159.909 266.787C159.909 264.991 159.443 263.514 158.511 262.355C157.58 261.196 156.358 260.338 154.847 259.781C153.335 259.224 151.705 258.946 149.955 258.946C148.205 258.946 146.58 259.224 145.08 259.781C143.58 260.338 142.369 261.196 141.449 262.355C140.528 263.514 140.068 264.991 140.068 266.787ZM137 289.832L163.182 281.855V286.082L143.136 291.741V292.014L163.182 297.605V301.901L143.205 307.423V307.696L163.182 313.355V317.582L137 309.605V305.651L157.114 299.923V299.514L137 293.787V289.832ZM152.75 326.923H137V322.901H163.182V326.787H159.091V327.128C160.42 327.741 161.489 328.673 162.295 329.923C163.114 331.173 163.523 332.787 163.523 334.764C163.523 336.537 163.159 338.088 162.432 339.418C161.716 340.747 160.625 341.781 159.159 342.52C157.705 343.259 155.864 343.628 153.636 343.628H137V339.605H153.364C155.42 339.605 157.023 339.071 158.17 338.003C159.33 336.935 159.909 335.469 159.909 333.605C159.909 332.321 159.631 331.173 159.074 330.162C158.517 329.162 157.705 328.372 156.636 327.793C155.568 327.213 154.273 326.923 152.75 326.923Z" fill="url(#paint2_linear_8_73)"/>
<path d="M353.15 312.3C356.45 308.2 359.95 304.5 363.65 301.2C366.85 298.5 370.475 296.05 374.525 293.85C378.575 291.65 382.8 290.7 387.2 291C393.4 291.5 398.575 292.975 402.725 295.425C406.875 297.875 410.175 300.975 412.625 304.725C415.075 308.475 416.75 312.725 417.65 317.475C418.55 322.225 418.85 327.1 418.55 332.1C418.25 337.1 417.375 341.875 415.925 346.425C414.475 350.975 412.675 355.225 410.525 359.175C408.375 363.125 406 366.775 403.4 370.125C400.8 373.475 398.2 376.5 395.6 379.2C391.6 383.3 387.425 387.125 383.075 390.675C378.725 394.225 374.575 397.275 370.625 399.825C366.675 402.375 363.075 404.4 359.825 405.9C356.575 407.4 354.05 408.15 352.25 408.15C350.25 408.25 347.7 407.55 344.6 406.05C341.5 404.55 338.1 402.525 334.4 399.975C330.7 397.425 326.8 394.4 322.7 390.9C318.6 387.4 314.55 383.7 310.55 379.8C307.95 377.3 305.15 374.4 302.15 371.1C299.15 367.8 296.325 364.175 293.675 360.225C291.025 356.275 288.75 352 286.85 347.4C284.95 342.8 283.9 337.9 283.7 332.7C283.5 327.5 284.05 322.625 285.35 318.075C286.65 313.525 288.6 309.45 291.2 305.85C293.8 302.25 297 299.225 300.8 296.775C304.6 294.325 308.9 292.6 313.7 291.6C316.1 291.1 318.5 291.025 320.9 291.375C323.3 291.725 325.65 292.325 327.95 293.175C330.25 294.025 332.45 295.1 334.55 296.4C336.65 297.7 338.65 299.05 340.55 300.45C344.95 303.75 349.15 307.7 353.15 312.3Z" fill="#FFB6C1"/>
<defs>
<linearGradient id="paint0_linear_8_73" x1="216" y1="376" x2="92" y2="376" gradientUnits="userSpaceOnUse">
<stop stop-color="#32475B"/>
<stop offset="1" stop-color="#3FB27F"/>
</linearGradient>
<linearGradient id="paint1_linear_8_73" x1="216" y1="151.5" x2="438" y2="151.5" gradientUnits="userSpaceOnUse">
<stop stop-color="#6D54E8"/>
<stop offset="0.504808" stop-color="#873CF6"/>
<stop offset="1" stop-color="#F7BD1A"/>
</linearGradient>
<linearGradient id="paint2_linear_8_73" x1="183" y1="229.5" x2="125" y2="229.5" gradientUnits="userSpaceOnUse">
<stop stop-color="#B91A1D"/>
<stop offset="1"/>
</linearGradient>
</defs>
</svg>
